<?xml version="1.0" standalone="no"?>
<!DOCTYPE svg PUBLIC "-//W3C//DTD SVG 20010904//EN"
 "http://www.w3.org/TR/2001/REC-SVG-20010904/DTD/svg10.dtd">
<svg version="1.0" xmlns="http://www.w3.org/2000/svg"
 width="500.000000pt" height="500.000000pt" viewBox="0 0 500.000000 500.000000"
 preserveAspectRatio="xMidYMid meet">

<g transform="translate(0.000000,500.000000) scale(0.100000,-0.100000)"
fill="#000000" stroke="none">
<path d="M2240 4959 c-329 -44 -572 -115 -835 -244 -669 -327 -1173 -972
-1318 -1685 -67 -330 -69 -701 -6 -1015 64 -315 180 -598 349 -852 81 -121
220 -302 233 -303 4 0 10 8 14 17 75 215 341 590 771 1087 l155 179 -12 41
c-6 23 -19 64 -27 91 -10 32 -18 106 -21 206 -5 146 -4 163 21 260 33 128 78
223 154 325 112 152 264 269 433 334 202 78 480 80 670 5 l36 -14 159 141
c390 345 855 687 1037 762 29 12 61 27 72 34 23 14 34 2 -111 117 -353 280
-777 453 -1244 510 -134 16 -422 18 -530 4z"/>
<path d="M4231 4157 c-70 -185 -346 -573 -690 -972 -193 -222 -485 -536 -800
-857 -123 -125 -221 -228 -218 -228 2 0 38 11 78 24 259 85 812 256 827 256
20 0 10 -57 -30 -178 -93 -281 -342 -523 -629 -610 -108 -33 -249 -45 -375
-33 -120 12 -164 24 -273 70 l-73 31 -33 -27 c-19 -16 -111 -96 -207 -178
-167 -145 -483 -394 -618 -486 -154 -106 -319 -198 -383 -213 -15 -3 -27 -10
-27 -15 0 -23 216 -196 365 -294 299 -195 630 -320 995 -374 160 -24 550 -24
710 0 209 31 442 97 627 179 672 294 1175 869 1378 1573 169 587 109 1250
-160 1786 -63 124 -194 330 -273 429 -85 106 -151 180 -161 180 -3 0 -17 -28
-30 -63z"/>
<path d="M3263 3520 c-64 -29 -252 -150 -272 -174 -9 -11 2 -23 51 -59 35 -25
84 -66 111 -91 26 -25 49 -46 51 -46 9 0 137 200 160 250 67 143 33 183 -101
120z"/>
<path d="M1582 1910 c-79 -119 -132 -225 -132 -264 0 -31 30 -49 67 -40 60 15
333 173 333 193 0 4 -18 25 -41 46 -22 22 -63 70 -91 108 -28 37 -54 67 -57
67 -3 0 -39 -50 -79 -110z"/>
</g>
</svg>
